<?xml version="1.0" standalone="no"?><!DOCTYPE svg PUBLIC "-//W3C//DTD SVG 1.1//EN" "http://www.w3.org/Graphics/SVG/1.1/DTD/svg11.dtd"><svg class="icon" width="200px" height="171.52px" viewBox="0 0 1194 1024" version="1.1" xmlns="http://www.w3.org/2000/svg"><path fill="#333333" d="M739.555556 170.666667v113.777777c159.288889 0 284.444444 125.155556 284.444444 284.444445s-125.155556 284.444444-284.444444 284.444444H455.111111c-159.288889 0-284.444444-125.155556-284.444444-284.444444s125.155556-284.444444 284.444444-284.444445h170.666667L398.222222 56.888889v119.466667c-193.422222 28.444444-341.333333 193.422222-341.333333 392.533333 0 221.866667 176.355556 398.222222 398.222222 398.222222h284.444445c221.866667 0 398.222222-176.355556 398.222222-398.222222s-176.355556-398.222222-398.222222-398.222222zM568.888889 403.911111L455.111111 512l56.888889 62.577778 56.888889-51.2v221.866666h113.777778v-341.333333z" /></svg>